<svg width="25" height="24" viewBox="0 0 25 24" fill="none" xmlns="http://www.w3.org/2000/svg">
<path d="M5.68773 3.44179L12.0039 9.7577L18.2874 3.47451C18.4262 3.32679 18.5933 3.20861 18.7789 3.12707C18.9645 3.04554 19.1646 3.00231 19.3673 3C19.8013 3 20.2175 3.17239 20.5244 3.47925C20.8312 3.7861 21.0036 4.20229 21.0036 4.63625C21.0075 4.83685 20.9702 5.03612 20.8943 5.22183C20.8183 5.40753 20.7052 5.57575 20.5618 5.71617L14.1966 11.9994L20.5618 18.3644C20.8315 18.6282 20.9897 18.9854 21.0036 19.3625C21.0036 19.7964 20.8312 20.2126 20.5244 20.5195C20.2175 20.8263 19.8013 20.9987 19.3673 20.9987C19.1588 21.0074 18.9507 20.9726 18.7564 20.8965C18.562 20.8204 18.3856 20.7048 18.2383 20.5569L12.0039 14.241L5.70409 20.5406C5.56583 20.6834 5.40066 20.7974 5.21811 20.876C5.03556 20.9546 4.83924 20.9963 4.64049 20.9987C4.20651 20.9987 3.79031 20.8263 3.48344 20.5195C3.17657 20.2126 3.00417 19.7964 3.00417 19.3625C3.00036 19.1619 3.03758 18.9626 3.11355 18.7769C3.18953 18.5912 3.30265 18.423 3.44598 18.2825L9.81124 11.9994L3.44598 5.63436C3.17629 5.37053 3.01815 5.01326 3.00417 4.63625C3.00417 4.20229 3.17657 3.7861 3.48344 3.47925C3.79031 3.17239 4.20651 3 4.64049 3C5.0332 3.00491 5.40956 3.16362 5.68773 3.44179Z" fill="white"/>
</svg>
