<svg width="40" height="40" viewBox="0 0 40 40" fill="none" xmlns="http://www.w3.org/2000/svg">
<path d="M33.9461 9.70678L23.6528 20.0001L33.8928 30.2401C34.1335 30.4663 34.3261 30.7388 34.459 31.0412C34.5919 31.3436 34.6623 31.6698 34.6661 32.0001C34.6661 32.7074 34.3852 33.3856 33.8851 33.8857C33.385 34.3858 32.7067 34.6668 31.9994 34.6668C31.6725 34.673 31.3477 34.6123 31.0451 34.4885C30.7424 34.3647 30.4683 34.1804 30.2394 33.9468L19.9994 23.5734L9.6261 33.9468C9.19613 34.3863 8.61387 34.644 7.99944 34.6668C7.29219 34.6668 6.61392 34.3858 6.11382 33.8857C5.61372 33.3856 5.33277 32.7074 5.33277 32.0001C5.31867 31.6603 5.3754 31.3212 5.49935 31.0044C5.6233 30.6877 5.81176 30.4001 6.05277 30.1601L16.3461 20.0001L6.07944 9.73344C5.84671 9.50812 5.66091 9.23895 5.53276 8.94145C5.40461 8.64395 5.33664 8.32401 5.33277 8.00011C5.33277 7.29286 5.61373 6.61459 6.11382 6.11449C6.61392 5.61439 7.2922 5.33344 7.99944 5.33344C8.32638 5.32722 8.65114 5.38788 8.95379 5.51169C9.25644 5.63551 9.5306 5.81986 9.75944 6.05344L19.9994 16.4268L30.3728 6.05344C30.8028 5.61393 31.385 5.35621 31.9994 5.33344C32.7067 5.33344 33.385 5.61439 33.8851 6.11449C34.3852 6.61459 34.6661 7.29286 34.6661 8.00011C34.6581 8.64011 34.3994 9.25344 33.9461 9.70678Z" fill="white"/>
</svg>
