<svg width="31" height="31" viewBox="0 0 31 31" fill="none" xmlns="http://www.w3.org/2000/svg">
<g clip-path="url(#clip0_145_6692)">
<path d="M16.8561 6.50132L16.8561 14.1437L24.459 14.1437C24.6323 14.1383 24.805 14.168 24.9666 14.2309C25.1282 14.2939 25.2754 14.3888 25.3994 14.51C25.662 14.7726 25.8095 15.1287 25.8095 15.5C25.8095 15.8713 25.662 16.2274 25.3994 16.4899C25.2804 16.6136 25.1373 16.7116 24.979 16.778C24.8206 16.8444 24.6504 16.8777 24.4788 16.876L16.8264 16.8265L16.8264 24.5283C16.83 24.8511 16.7095 25.1629 16.4899 25.3995C16.2273 25.662 15.8712 25.8095 15.4999 25.8095C15.1286 25.8095 14.7725 25.662 14.51 25.3995C14.3786 25.2785 14.2738 25.1316 14.2022 24.968C14.1306 24.8044 14.0938 24.6277 14.0942 24.4491L14.1437 16.8562L6.52107 16.8562C6.35103 16.8589 6.18213 16.828 6.02412 16.7651C5.8661 16.7023 5.7221 16.6087 5.60042 16.4899C5.33787 16.2274 5.19037 15.8713 5.19037 15.5C5.19037 15.1287 5.33787 14.7726 5.60042 14.51C5.71948 14.3863 5.86256 14.2883 6.02088 14.2219C6.1792 14.1555 6.34941 14.1222 6.52108 14.1239L14.1734 14.1734L14.1734 6.47162C14.1698 6.14884 14.2903 5.83701 14.51 5.60046C14.7725 5.33791 15.1286 5.19041 15.4999 5.19041C15.8712 5.19041 16.2273 5.33791 16.4899 5.60046C16.7245 5.84102 16.8561 6.16473 16.8561 6.50132Z" fill="white"/>
</g>
<defs>
<clipPath id="clip0_145_6692">
<rect width="21" height="21" fill="white" transform="translate(15.5 0.650391) rotate(45)"/>
</clipPath>
</defs>
</svg>
