<svg width="34" height="35" viewBox="0 0 34 35" fill="none" xmlns="http://www.w3.org/2000/svg">
<circle cx="17" cy="17.5" r="17" fill="url(#paint0_linear_145_5964)"/>
<circle cx="17" cy="17.5" r="17" fill="white"/>
<path fill-rule="evenodd" clip-rule="evenodd" d="M23.3018 25.0679V25.066L23.3193 25.0242L26.2326 10.3362V10.2896C26.2326 9.92334 26.0966 9.60374 25.8032 9.41237C25.5458 9.24431 25.2495 9.23265 25.0416 9.2482C24.8481 9.2657 24.6572 9.3048 24.4724 9.36477C24.3936 9.39017 24.3158 9.41869 24.2392 9.45025L24.2266 9.45511L7.98431 15.8267L7.97945 15.8287C7.93007 15.8455 7.88174 15.8653 7.83471 15.8879C7.7192 15.9398 7.60837 16.0016 7.50345 16.0725C7.2946 16.2163 6.89728 16.5543 6.96431 17.0905C7.01968 17.5355 7.32568 17.8172 7.5326 17.9639C7.65473 18.0494 7.78604 18.1211 7.92408 18.1776L7.95517 18.1912L7.96488 18.1941L7.97168 18.197L10.8141 19.1539C10.8044 19.3316 10.8219 19.5133 10.8695 19.693L12.2926 25.0932C12.3703 25.3875 12.5383 25.6501 12.773 25.8441C13.0076 26.0381 13.2972 26.1537 13.6009 26.1747C13.9046 26.1957 14.2073 26.1211 14.4664 25.9612C14.7255 25.8014 14.9281 25.5644 15.0456 25.2836L17.2683 22.9075L21.085 25.8334L21.1394 25.8567C21.4862 26.0083 21.8097 26.0559 22.106 26.016C22.4023 25.9752 22.6373 25.8509 22.8141 25.71C23.0186 25.5442 23.1816 25.333 23.2901 25.0932L23.2979 25.0767L23.3008 25.0708L23.3018 25.0679ZM12.278 19.3219C12.2623 19.262 12.266 19.1986 12.2887 19.141C12.3114 19.0833 12.3519 19.0344 12.4043 19.0013L22.0419 12.8813C22.0419 12.8813 22.6092 12.5365 22.5888 12.8813C22.5888 12.8813 22.6898 12.9416 22.3857 13.2243C22.0982 13.4933 15.5168 19.8475 14.8504 20.4905C14.8133 20.5265 14.7874 20.5724 14.7756 20.6227L13.7012 24.7221L12.278 19.3209V19.3219Z" fill="white"/>
<path fill-rule="evenodd" clip-rule="evenodd" d="M23.3018 25.0679V25.066L23.3193 25.0242L26.2326 10.3362V10.2896C26.2326 9.92334 26.0966 9.60374 25.8032 9.41237C25.5458 9.24431 25.2495 9.23265 25.0416 9.2482C24.8481 9.2657 24.6572 9.3048 24.4724 9.36477C24.3936 9.39017 24.3158 9.41869 24.2392 9.45025L24.2266 9.45511L7.98431 15.8267L7.97945 15.8287C7.93007 15.8455 7.88174 15.8653 7.83471 15.8879C7.7192 15.9398 7.60837 16.0016 7.50345 16.0725C7.2946 16.2163 6.89728 16.5543 6.96431 17.0905C7.01968 17.5355 7.32568 17.8172 7.5326 17.9639C7.65473 18.0494 7.78604 18.1211 7.92408 18.1776L7.95517 18.1912L7.96488 18.1941L7.97168 18.197L10.8141 19.1539C10.8044 19.3316 10.8219 19.5133 10.8695 19.693L12.2926 25.0932C12.3703 25.3875 12.5383 25.6501 12.773 25.8441C13.0076 26.0381 13.2972 26.1537 13.6009 26.1747C13.9046 26.1957 14.2073 26.1211 14.4664 25.9612C14.7255 25.8014 14.9281 25.5644 15.0456 25.2836L17.2683 22.9075L21.085 25.8334L21.1394 25.8567C21.4862 26.0083 21.8097 26.0559 22.106 26.016C22.4023 25.9752 22.6373 25.8509 22.8141 25.71C23.0186 25.5442 23.1816 25.333 23.2901 25.0932L23.2979 25.0767L23.3008 25.0708L23.3018 25.0679ZM12.278 19.3219C12.2623 19.262 12.266 19.1986 12.2887 19.141C12.3114 19.0833 12.3519 19.0344 12.4043 19.0013L22.0419 12.8813C22.0419 12.8813 22.6092 12.5365 22.5888 12.8813C22.5888 12.8813 22.6898 12.9416 22.3857 13.2243C22.0982 13.4933 15.5168 19.8475 14.8504 20.4905C14.8133 20.5265 14.7874 20.5724 14.7756 20.6227L13.7012 24.7221L12.278 19.3209V19.3219Z" fill="url(#paint1_linear_145_5964)"/>
<defs>
<linearGradient id="paint0_linear_145_5964" x1="34" y1="34.5" x2="0" y2="0.5" gradientUnits="userSpaceOnUse">
<stop offset="0.311873" stop-color="#0169F4"/>
<stop offset="1" stop-color="#9DC4FF"/>
</linearGradient>
<linearGradient id="paint1_linear_145_5964" x1="26.2326" y1="26.1782" x2="9.43849" y2="7.06283" gradientUnits="userSpaceOnUse">
<stop offset="0.311873" stop-color="#0169F4"/>
<stop offset="1" stop-color="#9DC4FF"/>
</linearGradient>
</defs>
</svg>
