<svg width="29" height="29" viewBox="0 0 29 29" fill="none" xmlns="http://www.w3.org/2000/svg">
<circle cx="14.5" cy="14.5" r="14.5" fill="url(#paint0_linear_145_8583)"/>
<circle cx="14.5" cy="14.5" r="14.5" fill="#3D87F5"/>
<circle cx="14.5" cy="14.5" r="14.5" fill="url(#paint1_linear_145_8583)"/>
<path fill-rule="evenodd" clip-rule="evenodd" d="M19.4152 21.0166V21.0148L19.4306 20.9778L22 7.96814V7.92684C22 7.60246 21.8801 7.31937 21.6213 7.14987C21.3943 7.00102 21.133 6.99069 20.9496 7.00446C20.779 7.01996 20.6106 7.05459 20.4476 7.10771C20.3781 7.13021 20.3095 7.15547 20.242 7.18343L20.2308 7.18773L5.90621 12.8313L5.90192 12.833C5.85837 12.8479 5.81575 12.8655 5.77427 12.8855C5.67239 12.9315 5.57465 12.9862 5.48212 13.049C5.29793 13.1763 4.94752 13.4758 5.00663 13.9507C5.05547 14.3448 5.32534 14.5943 5.50783 14.7242C5.61554 14.8 5.73134 14.8635 5.85309 14.9135L5.88051 14.9256L5.88907 14.9282L5.89507 14.9307L8.40188 15.7783C8.39331 15.9357 8.40873 16.0966 8.45071 16.2558L9.70583 21.0389C9.7744 21.2997 9.92256 21.5323 10.1295 21.7041C10.3365 21.8759 10.5918 21.9783 10.8597 21.9969C11.1275 22.0155 11.3945 21.9494 11.623 21.8078C11.8515 21.6663 12.0302 21.4563 12.1338 21.2076L14.094 19.103L17.4602 21.6946L17.5081 21.7152C17.814 21.8495 18.0993 21.8916 18.3606 21.8563C18.6219 21.8202 18.8292 21.7101 18.9851 21.5853C19.1655 21.4385 19.3092 21.2514 19.4049 21.0389L19.4118 21.0243L19.4144 21.0191L19.4152 21.0166ZM9.69298 15.9271C9.67908 15.874 9.68239 15.8179 9.70241 15.7668C9.72244 15.7158 9.75815 15.6725 9.80436 15.6432L18.304 10.2225C18.304 10.2225 18.8044 9.91701 18.7864 10.2225C18.7864 10.2225 18.8755 10.2758 18.6073 10.5262C18.3537 10.7645 12.5493 16.3926 11.9616 16.9622C11.9289 16.9941 11.906 17.0347 11.8957 17.0792L10.9481 20.7102L9.69298 15.9263V15.9271Z" fill="white"/>
<defs>
<linearGradient id="paint0_linear_145_8583" x1="29" y1="29" x2="0" y2="0" gradientUnits="userSpaceOnUse">
<stop offset="0.311873" stop-color="#0169F4"/>
<stop offset="1" stop-color="#9DC4FF"/>
</linearGradient>
<linearGradient id="paint1_linear_145_8583" x1="29" y1="29" x2="0" y2="0" gradientUnits="userSpaceOnUse">
<stop offset="0.311873" stop-color="#0169F4"/>
<stop offset="1" stop-color="#9DC4FF"/>
</linearGradient>
</defs>
</svg>
