<svg width="29" height="29" viewBox="0 0 29 29" fill="none" xmlns="http://www.w3.org/2000/svg">
<circle cx="14.5" cy="14.5" r="14.5" fill="url(#paint0_linear_145_8579)"/>
<circle cx="14.5" cy="14.5" r="14.5" fill="#3D87F5"/>
<circle cx="14.5" cy="14.5" r="14.5" fill="url(#paint1_linear_145_8579)"/>
<path fill-rule="evenodd" clip-rule="evenodd" d="M18.066 6.43799C15.3881 5.854 12.6111 5.854 9.93325 6.43799L9.64471 6.50027C8.89147 6.66457 8.19965 7.02938 7.64611 7.55417C7.09258 8.07896 6.699 8.74318 6.50909 9.47305C5.8303 12.0826 5.8303 14.8161 6.50909 17.4256C6.6902 18.1217 7.05673 18.7587 7.57152 19.272C8.08632 19.7854 8.73108 20.1568 9.44044 20.3486L9.83622 22.6538C9.84886 22.727 9.88137 22.7955 9.93039 22.8523C9.9794 22.9091 10.0431 22.952 10.1149 22.9766C10.1867 23.0011 10.2639 23.0065 10.3386 22.9921C10.4132 22.9777 10.4825 22.944 10.5393 22.8946L12.8637 20.8659C14.6087 20.9698 16.3599 20.8337 18.066 20.4615L18.3553 20.3993C19.1086 20.235 19.8004 19.8702 20.3539 19.3454C20.9075 18.8206 21.3011 18.1564 21.491 17.4265C22.1697 14.817 22.1697 12.0834 21.491 9.47388C21.301 8.7439 20.9073 8.07961 20.3536 7.55481C19.7999 7.03001 19.1079 6.66527 18.3545 6.5011L18.066 6.43799ZM10.6516 9.40579C10.4934 9.38333 10.3321 9.41439 10.1946 9.49381H10.1826C9.86346 9.6765 9.57577 9.90651 9.33064 10.1772C9.12637 10.4072 9.01572 10.6397 8.98678 10.8639C8.96976 10.9968 8.98167 11.1313 9.02168 11.2584L9.037 11.2667C9.26681 11.9252 9.56641 12.5588 9.9324 13.155C10.4043 13.9924 10.9851 14.7669 11.6602 15.4593L11.6807 15.4875L11.713 15.5108L11.7326 15.5332L11.7564 15.5531C12.4686 16.2138 13.2643 16.7831 14.1243 17.2471C15.1074 17.7694 15.704 18.0161 16.0624 18.119V18.124C16.167 18.1556 16.2624 18.1697 16.3586 18.1697C16.6637 18.1477 16.9526 18.0266 17.1791 17.8259C17.4557 17.5867 17.6897 17.3052 17.8719 16.9922V16.9864C18.043 16.6708 17.9851 16.3736 17.7383 16.1718C17.2425 15.7491 16.7064 15.3737 16.1373 15.0507C15.7559 14.849 15.3687 14.971 15.2121 15.1753L14.8776 15.5872C14.7056 15.7915 14.3941 15.7632 14.3941 15.7632L14.3856 15.7682C12.0611 15.1894 11.4406 12.8934 11.4406 12.8934C11.4406 12.8934 11.4117 12.5812 11.627 12.4217L12.0458 12.0929C12.2467 11.9335 12.3863 11.5565 12.1709 11.1845C11.842 10.6288 11.458 10.1059 11.0244 9.62335C10.9298 9.50979 10.7972 9.43245 10.6499 9.40496L10.6516 9.40579ZM14.5788 8.40767C14.4659 8.40767 14.3577 8.45141 14.2779 8.52927C14.1981 8.60714 14.1532 8.71274 14.1532 8.82286C14.1532 8.93298 14.1981 9.03858 14.2779 9.11645C14.3577 9.19431 14.4659 9.23805 14.5788 9.23805C15.6555 9.23805 16.5492 9.581 17.2565 10.2387C17.62 10.5982 17.9034 11.0242 18.0889 11.4909C18.2753 11.9584 18.3604 12.4575 18.3383 12.9573C18.336 13.0119 18.3447 13.0663 18.3639 13.1176C18.3831 13.1688 18.4125 13.2159 18.4503 13.256C18.5268 13.3372 18.6331 13.3854 18.746 13.39C18.8589 13.3946 18.969 13.3553 19.0522 13.2807C19.1353 13.2061 19.1847 13.1023 19.1895 12.9922C19.2159 12.3773 19.1112 11.7637 18.8822 11.1903C18.6522 10.6141 18.3034 10.0901 17.8574 9.65075L17.8489 9.64245C16.9714 8.82452 15.8606 8.40767 14.5788 8.40767ZM14.5499 9.77282C14.437 9.77282 14.3288 9.81656 14.2489 9.89443C14.1691 9.97229 14.1243 10.0779 14.1243 10.188C14.1243 10.2981 14.1691 10.4037 14.2489 10.4816C14.3288 10.5595 14.437 10.6032 14.5499 10.6032H14.5643C15.3406 10.6572 15.9057 10.9096 16.3015 11.324C16.7075 11.7508 16.9178 12.2814 16.9016 12.9374C16.899 13.0475 16.9413 13.1541 17.0193 13.2338C17.0973 13.3135 17.2045 13.3596 17.3174 13.3622C17.4302 13.3647 17.5395 13.3234 17.6212 13.2473C17.7028 13.1712 17.7501 13.0666 17.7527 12.9565C17.7732 12.0954 17.4889 11.3522 16.9254 10.7593V10.7577C16.3492 10.1548 15.5585 9.83593 14.6069 9.77365L14.5924 9.77199L14.5499 9.77282ZM14.5337 11.1637C14.4767 11.1588 14.4194 11.1652 14.365 11.1824C14.3106 11.1996 14.2603 11.2273 14.2172 11.2639C14.174 11.3005 14.1388 11.3452 14.1138 11.3953C14.0887 11.4454 14.0743 11.5 14.0713 11.5557C14.0683 11.6114 14.0769 11.6671 14.0965 11.7195C14.116 11.7719 14.1463 11.8199 14.1853 11.8607C14.2243 11.9015 14.2714 11.9341 14.3236 11.9568C14.3759 11.9794 14.4323 11.9915 14.4894 11.9924C14.8452 12.0107 15.0725 12.1153 15.2155 12.2557C15.3593 12.3968 15.4666 12.6235 15.4861 12.9781C15.4872 13.0338 15.4997 13.0888 15.523 13.1397C15.5463 13.1905 15.5799 13.2363 15.6217 13.2743C15.6635 13.3123 15.7127 13.3416 15.7664 13.3607C15.8201 13.3797 15.8772 13.3879 15.9342 13.385C15.9912 13.382 16.0471 13.3679 16.0984 13.3435C16.1497 13.319 16.1955 13.2847 16.2329 13.2426C16.2704 13.2006 16.2988 13.1516 16.3164 13.0985C16.3341 13.0455 16.3406 12.9896 16.3356 12.9341C16.3083 12.4359 16.1483 11.9958 15.8206 11.6719C15.4912 11.3481 15.0427 11.1903 14.5337 11.1637Z" fill="white"/>
<defs>
<linearGradient id="paint0_linear_145_8579" x1="29" y1="29" x2="0" y2="0" gradientUnits="userSpaceOnUse">
<stop offset="0.311873" stop-color="#0169F4"/>
<stop offset="1" stop-color="#9DC4FF"/>
</linearGradient>
<linearGradient id="paint1_linear_145_8579" x1="29" y1="29" x2="0" y2="0" gradientUnits="userSpaceOnUse">
<stop offset="0.311873" stop-color="#0169F4"/>
<stop offset="1" stop-color="#9DC4FF"/>
</linearGradient>
</defs>
</svg>
