<svg width="34" height="35" viewBox="0 0 34 35" fill="none" xmlns="http://www.w3.org/2000/svg">
<circle cx="17" cy="17.5" r="17" fill="url(#paint0_linear_145_5960)"/>
<circle cx="17" cy="17.5" r="17" fill="white"/>
<path fill-rule="evenodd" clip-rule="evenodd" d="M21.5426 8.39569C18.4863 7.7125 15.3169 7.7125 12.2606 8.39569L11.9313 8.46855C11.0716 8.66076 10.282 9.08753 9.65022 9.70145C9.01846 10.3154 8.56926 11.0924 8.35252 11.9463C7.57781 14.999 7.57781 18.1969 8.35252 21.2496C8.55922 22.0639 8.97754 22.8091 9.56509 23.4096C10.1526 24.0102 10.8885 24.4446 11.6981 24.6691L12.1498 27.3657C12.1643 27.4514 12.2014 27.5316 12.2573 27.598C12.3133 27.6644 12.386 27.7146 12.4679 27.7434C12.5498 27.7721 12.638 27.7784 12.7232 27.7616C12.8084 27.7447 12.8875 27.7053 12.9522 27.6475L15.6052 25.2743C17.5967 25.3958 19.5954 25.2365 21.5426 24.8012L21.8729 24.7283C22.7326 24.5361 23.5222 24.1093 24.1539 23.4954C24.7857 22.8815 25.2349 22.1044 25.4516 21.2506C26.2262 18.1979 26.2262 15 25.4516 11.9472C25.2348 11.0933 24.7854 10.3161 24.1535 9.7022C23.5216 9.08827 22.7318 8.66157 21.8719 8.46952L21.5426 8.39569ZM13.0805 11.8676C12.8999 11.8413 12.7158 11.8776 12.5588 11.9705H12.5452C12.1809 12.1843 11.8526 12.4533 11.5728 12.77C11.3397 13.0391 11.2134 13.3111 11.1804 13.5734C11.1609 13.7288 11.1745 13.8862 11.2202 14.0348L11.2377 14.0445C11.5 14.8149 11.8419 15.5561 12.2596 16.2536C12.7982 17.2333 13.461 18.1393 14.2316 18.9493L14.2549 18.9823L14.2918 19.0095L14.3142 19.0357L14.3414 19.0591C15.1542 19.832 16.0624 20.4979 17.0439 21.0408C18.1659 21.6518 18.8469 21.9403 19.2558 22.0608V22.0666C19.3753 22.1035 19.4841 22.12 19.5939 22.12C19.9422 22.0943 20.2719 21.9527 20.5304 21.7179C20.8461 21.4381 21.1132 21.1088 21.3211 20.7425V20.7357C21.5164 20.3666 21.4503 20.0188 21.1686 19.7828C20.6027 19.2884 19.9908 18.8492 19.3413 18.4713C18.9061 18.2353 18.4641 18.3781 18.2854 18.6171L17.9036 19.0989C17.7074 19.3379 17.3518 19.3048 17.3518 19.3048L17.3421 19.3107C14.6892 18.6336 13.981 15.9476 13.981 15.9476C13.981 15.9476 13.948 15.5823 14.1937 15.3958L14.6717 15.0111C14.9009 14.8246 15.0602 14.3836 14.8145 13.9484C14.4391 13.2983 14.0008 12.6866 13.506 12.1221C13.398 11.9892 13.2466 11.8988 13.0785 11.8666L13.0805 11.8676ZM17.5626 10.6999C17.4338 10.6999 17.3103 10.7511 17.2192 10.8422C17.1281 10.9333 17.0769 11.0568 17.0769 11.1856C17.0769 11.3145 17.1281 11.438 17.2192 11.5291C17.3103 11.6202 17.4338 11.6713 17.5626 11.6713C18.7915 11.6713 19.8115 12.0725 20.6188 12.8419C21.0336 13.2625 21.357 13.7609 21.5688 14.3068C21.7816 14.8537 21.8787 15.4376 21.8534 16.0224C21.8508 16.0862 21.8607 16.1498 21.8826 16.2098C21.9045 16.2698 21.9381 16.3248 21.9813 16.3718C22.0685 16.4667 22.1899 16.5231 22.3188 16.5285C22.4476 16.5339 22.5733 16.4879 22.6682 16.4007C22.7631 16.3134 22.8195 16.192 22.8249 16.0632C22.855 15.3438 22.7356 14.626 22.4742 13.9552C22.2116 13.2811 21.8136 12.6681 21.3046 12.1541L21.2949 12.1444C20.2933 11.1876 19.0256 10.6999 17.5626 10.6999ZM17.5296 12.2969C17.4008 12.2969 17.2772 12.3481 17.1862 12.4392C17.0951 12.5303 17.0439 12.6538 17.0439 12.7827C17.0439 12.9115 17.0951 13.035 17.1862 13.1261C17.2772 13.2172 17.4008 13.2684 17.5296 13.2684H17.5461C18.4321 13.3315 19.0771 13.6268 19.5288 14.1116C19.9922 14.6109 20.2321 15.2316 20.2137 15.9991C20.2107 16.1279 20.259 16.2526 20.348 16.3458C20.437 16.439 20.5594 16.493 20.6882 16.4959C20.817 16.4989 20.9417 16.4506 21.0349 16.3616C21.1281 16.2726 21.1821 16.1502 21.1851 16.0214C21.2084 15.014 20.884 14.1446 20.2409 13.451V13.4491C19.5832 12.7438 18.6808 12.3708 17.5947 12.2979L17.5782 12.296L17.5296 12.2969ZM17.5112 13.9241C17.4461 13.9184 17.3807 13.9258 17.3186 13.9459C17.2565 13.966 17.1991 13.9985 17.1499 14.0413C17.1006 14.0841 17.0605 14.1364 17.0319 14.195C17.0033 14.2537 16.9868 14.3175 16.9834 14.3827C16.98 14.4478 16.9898 14.513 17.0121 14.5743C17.0345 14.6356 17.069 14.6918 17.1135 14.7395C17.158 14.7872 17.2117 14.8254 17.2714 14.8519C17.331 14.8783 17.3954 14.8925 17.4606 14.8936C17.8667 14.9149 18.1261 15.0373 18.2893 15.2015C18.4534 15.3667 18.5758 15.6319 18.5982 16.0467C18.5994 16.1118 18.6137 16.1761 18.6403 16.2356C18.6669 16.2952 18.7052 16.3487 18.7529 16.3932C18.8006 16.4376 18.8568 16.4719 18.9181 16.4942C18.9793 16.5164 19.0445 16.5261 19.1096 16.5227C19.1747 16.5192 19.2384 16.5027 19.297 16.4741C19.3556 16.4454 19.4078 16.4053 19.4505 16.3561C19.4933 16.3069 19.5257 16.2496 19.5458 16.1876C19.5659 16.1255 19.5734 16.0601 19.5677 15.9952C19.5366 15.4123 19.354 14.8975 18.98 14.5186C18.604 14.1397 18.0921 13.9552 17.5112 13.9241Z" fill="white"/>
<path fill-rule="evenodd" clip-rule="evenodd" d="M21.5426 8.39569C18.4863 7.7125 15.3169 7.7125 12.2606 8.39569L11.9313 8.46855C11.0716 8.66076 10.282 9.08753 9.65022 9.70145C9.01846 10.3154 8.56926 11.0924 8.35252 11.9463C7.57781 14.999 7.57781 18.1969 8.35252 21.2496C8.55922 22.0639 8.97754 22.8091 9.56509 23.4096C10.1526 24.0102 10.8885 24.4446 11.6981 24.6691L12.1498 27.3657C12.1643 27.4514 12.2014 27.5316 12.2573 27.598C12.3133 27.6644 12.386 27.7146 12.4679 27.7434C12.5498 27.7721 12.638 27.7784 12.7232 27.7616C12.8084 27.7447 12.8875 27.7053 12.9522 27.6475L15.6052 25.2743C17.5967 25.3958 19.5954 25.2365 21.5426 24.8012L21.8729 24.7283C22.7326 24.5361 23.5222 24.1093 24.1539 23.4954C24.7857 22.8815 25.2349 22.1044 25.4516 21.2506C26.2262 18.1979 26.2262 15 25.4516 11.9472C25.2348 11.0933 24.7854 10.3161 24.1535 9.7022C23.5216 9.08827 22.7318 8.66157 21.8719 8.46952L21.5426 8.39569ZM13.0805 11.8676C12.8999 11.8413 12.7158 11.8776 12.5588 11.9705H12.5452C12.1809 12.1843 11.8526 12.4533 11.5728 12.77C11.3397 13.0391 11.2134 13.3111 11.1804 13.5734C11.1609 13.7288 11.1745 13.8862 11.2202 14.0348L11.2377 14.0445C11.5 14.8149 11.8419 15.5561 12.2596 16.2536C12.7982 17.2333 13.461 18.1393 14.2316 18.9493L14.2549 18.9823L14.2918 19.0095L14.3142 19.0357L14.3414 19.0591C15.1542 19.832 16.0624 20.4979 17.0439 21.0408C18.1659 21.6518 18.8469 21.9403 19.2558 22.0608V22.0666C19.3753 22.1035 19.4841 22.12 19.5939 22.12C19.9422 22.0943 20.2719 21.9527 20.5304 21.7179C20.8461 21.4381 21.1132 21.1088 21.3211 20.7425V20.7357C21.5164 20.3666 21.4503 20.0188 21.1686 19.7828C20.6027 19.2884 19.9908 18.8492 19.3413 18.4713C18.9061 18.2353 18.4641 18.3781 18.2854 18.6171L17.9036 19.0989C17.7074 19.3379 17.3518 19.3048 17.3518 19.3048L17.3421 19.3107C14.6892 18.6336 13.981 15.9476 13.981 15.9476C13.981 15.9476 13.948 15.5823 14.1937 15.3958L14.6717 15.0111C14.9009 14.8246 15.0602 14.3836 14.8145 13.9484C14.4391 13.2983 14.0008 12.6866 13.506 12.1221C13.398 11.9892 13.2466 11.8988 13.0785 11.8666L13.0805 11.8676ZM17.5626 10.6999C17.4338 10.6999 17.3103 10.7511 17.2192 10.8422C17.1281 10.9333 17.0769 11.0568 17.0769 11.1856C17.0769 11.3145 17.1281 11.438 17.2192 11.5291C17.3103 11.6202 17.4338 11.6713 17.5626 11.6713C18.7915 11.6713 19.8115 12.0725 20.6188 12.8419C21.0336 13.2625 21.357 13.7609 21.5688 14.3068C21.7816 14.8537 21.8787 15.4376 21.8534 16.0224C21.8508 16.0862 21.8607 16.1498 21.8826 16.2098C21.9045 16.2698 21.9381 16.3248 21.9813 16.3718C22.0685 16.4667 22.1899 16.5231 22.3188 16.5285C22.4476 16.5339 22.5733 16.4879 22.6682 16.4007C22.7631 16.3134 22.8195 16.192 22.8249 16.0632C22.855 15.3438 22.7356 14.626 22.4742 13.9552C22.2116 13.2811 21.8136 12.6681 21.3046 12.1541L21.2949 12.1444C20.2933 11.1876 19.0256 10.6999 17.5626 10.6999ZM17.5296 12.2969C17.4008 12.2969 17.2772 12.3481 17.1862 12.4392C17.0951 12.5303 17.0439 12.6538 17.0439 12.7827C17.0439 12.9115 17.0951 13.035 17.1862 13.1261C17.2772 13.2172 17.4008 13.2684 17.5296 13.2684H17.5461C18.4321 13.3315 19.0771 13.6268 19.5288 14.1116C19.9922 14.6109 20.2321 15.2316 20.2137 15.9991C20.2107 16.1279 20.259 16.2526 20.348 16.3458C20.437 16.439 20.5594 16.493 20.6882 16.4959C20.817 16.4989 20.9417 16.4506 21.0349 16.3616C21.1281 16.2726 21.1821 16.1502 21.1851 16.0214C21.2084 15.014 20.884 14.1446 20.2409 13.451V13.4491C19.5832 12.7438 18.6808 12.3708 17.5947 12.2979L17.5782 12.296L17.5296 12.2969ZM17.5112 13.9241C17.4461 13.9184 17.3807 13.9258 17.3186 13.9459C17.2565 13.966 17.1991 13.9985 17.1499 14.0413C17.1006 14.0841 17.0605 14.1364 17.0319 14.195C17.0033 14.2537 16.9868 14.3175 16.9834 14.3827C16.98 14.4478 16.9898 14.513 17.0121 14.5743C17.0345 14.6356 17.069 14.6918 17.1135 14.7395C17.158 14.7872 17.2117 14.8254 17.2714 14.8519C17.331 14.8783 17.3954 14.8925 17.4606 14.8936C17.8667 14.9149 18.1261 15.0373 18.2893 15.2015C18.4534 15.3667 18.5758 15.6319 18.5982 16.0467C18.5994 16.1118 18.6137 16.1761 18.6403 16.2356C18.6669 16.2952 18.7052 16.3487 18.7529 16.3932C18.8006 16.4376 18.8568 16.4719 18.9181 16.4942C18.9793 16.5164 19.0445 16.5261 19.1096 16.5227C19.1747 16.5192 19.2384 16.5027 19.297 16.4741C19.3556 16.4454 19.4078 16.4053 19.4505 16.3561C19.4933 16.3069 19.5257 16.2496 19.5458 16.1876C19.5659 16.1255 19.5734 16.0601 19.5677 15.9952C19.5366 15.4123 19.354 14.8975 18.98 14.5186C18.604 14.1397 18.0921 13.9552 17.5112 13.9241Z" fill="url(#paint1_linear_145_5960)"/>
<defs>
<linearGradient id="paint0_linear_145_5960" x1="34" y1="34.5" x2="0" y2="0.5" gradientUnits="userSpaceOnUse">
<stop offset="0.311873" stop-color="#0169F4"/>
<stop offset="1" stop-color="#9DC4FF"/>
</linearGradient>
<linearGradient id="paint1_linear_145_5960" x1="26.0326" y1="27.7708" x2="6.21724" y2="9.57597" gradientUnits="userSpaceOnUse">
<stop offset="0.311873" stop-color="#0169F4"/>
<stop offset="1" stop-color="#9DC4FF"/>
</linearGradient>
</defs>
</svg>
