<svg width="12" height="12" viewBox="0 0 12 12" fill="none" xmlns="http://www.w3.org/2000/svg">
<circle cx="6" cy="6" r="6" fill="url(#paint0_linear_145_6355)"/>
<path d="M3.89461 3.14726L6 5.25257L8.09448 3.15817C8.14075 3.10893 8.19648 3.06954 8.25834 3.04236C8.3202 3.01518 8.38691 3.00077 8.45447 3C8.59913 3 8.73787 3.05746 8.84016 3.15975C8.94245 3.26203 8.99991 3.40076 8.99991 3.54542C9.00118 3.61228 8.98878 3.67871 8.96345 3.74061C8.93813 3.80251 8.90042 3.85858 8.85264 3.90539L6.73089 5.99978L8.85264 8.12145C8.94254 8.20939 8.99525 8.32848 8.99991 8.45415C8.99991 8.59881 8.94245 8.73753 8.84016 8.83982C8.73787 8.94211 8.59913 8.99957 8.45447 8.99957C8.38496 9.00245 8.31561 8.99085 8.25082 8.9655C8.18603 8.94015 8.12722 8.9016 8.07812 8.85231L6 6.747L3.90006 8.84685C3.85398 8.89445 3.79892 8.93245 3.73807 8.95867C3.67722 8.98488 3.61178 8.99878 3.54553 8.99957C3.40087 8.99957 3.26213 8.94211 3.15984 8.83982C3.05755 8.73753 3.00009 8.59881 3.00009 8.45415C2.99882 8.38728 3.01122 8.32086 3.03655 8.25896C3.06187 8.19706 3.09958 8.14098 3.14736 8.09418L5.26911 5.99978L3.14736 3.87812C3.05746 3.79018 3.00475 3.67109 3.00009 3.54542C3.00009 3.40076 3.05755 3.26203 3.15984 3.15975C3.26213 3.05746 3.40087 3 3.54553 3C3.67643 3.00164 3.80188 3.05454 3.89461 3.14726Z" fill="white"/>
<defs>
<linearGradient id="paint0_linear_145_6355" x1="12" y1="12" x2="0" y2="0" gradientUnits="userSpaceOnUse">
<stop offset="0.311873" stop-color="#0169F4"/>
<stop offset="1" stop-color="#9DC4FF"/>
</linearGradient>
</defs>
</svg>
